<svg width="12" height="12" viewBox="0 0 12 12" fill="none" xmlns="http://www.w3.org/2000/svg">
<path d="M10.5 3.93005C10.5 3.71505 10.472 3.50555 10.4195 3.30705C10.3735 3.13255 10.1585 3.09105 10.0315 3.21855L9.17 4.08005C9.08792 4.16213 8.99049 4.22723 8.88325 4.27165C8.77601 4.31607 8.66107 4.33894 8.545 4.33894C8.42893 4.33894 8.31399 4.31607 8.20675 4.27165C8.09952 4.22723 8.00208 4.16213 7.92 4.08005C7.83792 3.99798 7.77282 3.90054 7.7284 3.7933C7.68398 3.68606 7.66112 3.57113 7.66112 3.45505C7.66112 3.33898 7.68398 3.22404 7.7284 3.1168C7.77282 3.00957 7.83792 2.91213 7.92 2.83005L8.7815 1.96905C8.909 1.84155 8.8675 1.62655 8.693 1.58055C8.26519 1.46676 7.81443 1.472 7.38938 1.59569C6.96433 1.71939 6.58115 1.95684 6.2812 2.28242C5.98126 2.60799 5.77595 3.00932 5.68744 3.44306C5.59893 3.87681 5.63059 4.32649 5.779 4.74355C5.8145 4.84355 5.7945 4.95555 5.72 5.03005L1.65 9.10005C1.45 9.30005 1.45 9.62455 1.65 9.82405L2.176 10.3501C2.376 10.5501 2.6995 10.5501 2.8995 10.3501L6.9695 6.28005C7.0445 6.20505 7.1565 6.18505 7.256 6.22055C7.6227 6.35092 8.01535 6.39131 8.40092 6.33831C8.78648 6.28531 9.15367 6.14048 9.47159 5.916C9.78952 5.69152 10.0489 5.39396 10.2278 5.04837C10.4068 4.70277 10.5001 4.31924 10.5 3.93005Z" stroke="#669BCB" stroke-width="0.75" stroke-linecap="round" stroke-linejoin="round"/>
</svg>
