<svg width="124" height="124" viewBox="0 0 124 124" fill="none" xmlns="http://www.w3.org/2000/svg">
<path d="M81.375 3.875L83.7012 12.2426V21.0759L98.1806 31.9356L115.131 40.618L117.799 32.6161L96.2904 9.09535L91.5459 10.2816L81.375 3.875ZM78.3496 8.75023L65.5008 37.6602H72.2959L79.3418 20.0454V9.74272L78.3496 8.74975V8.75023ZM94.7844 13.9367L103.232 22.6167L93.1465 19.7983L94.7844 13.9367ZM81.9654 25.2233L76.119 39.8394L88.4023 70.5475L94.4013 34.5505L81.9657 25.2233H81.9654ZM21.7014 42.0195V76.4102H36.7171V53.1602H72.0764V76.4102H86.0524L72.2961 42.0195H21.7014ZM17.3421 44.1992L6.20145 52.5547V80.894L13.4671 83.3159V58.3115L17.3421 54.4365V44.1992ZM41.0764 57.5195V60.9102H67.7171V57.5195H41.0764ZM41.0764 65.2695V68.6602H67.7171V65.2695H41.0764ZM41.0764 73.0195V76.4102H67.7171V73.0195H41.0764ZM21.7014 80.7695V99.7837C24.1079 99.4324 26.564 99.8357 28.7317 100.938L37.6955 80.7695H21.7014ZM72.3324 80.7695L74.5131 100.396C75.826 99.9089 77.2153 99.6595 78.6158 99.6602C79.8751 99.6602 81.0892 99.8612 82.2304 100.229L86.5551 80.7695H72.3324ZM23.3968 104.02C19.2246 104.02 15.8889 107.355 15.8889 111.527C15.8889 115.7 19.2246 119.035 23.3968 119.035C27.5692 119.035 30.9046 115.7 30.9046 111.527C30.9046 107.355 27.5692 104.02 23.3968 104.02ZM78.6155 104.02C74.4433 104.02 71.1077 107.355 71.1077 111.527C71.1077 115.7 74.4433 119.035 78.6155 119.035C82.7879 119.035 86.1233 115.7 86.1233 111.527C86.1233 107.355 82.7879 104.02 78.6155 104.02ZM23.3968 107.652C25.537 107.652 27.2718 109.387 27.2718 111.527C27.2718 113.668 25.537 115.402 23.3968 115.402C21.2565 115.402 19.5218 113.668 19.5218 111.527C19.5218 109.387 21.2568 107.652 23.3968 107.652ZM78.6155 107.652C80.7557 107.652 82.4905 109.387 82.4905 111.527C82.4905 113.668 80.7557 115.402 78.6155 115.402C76.4753 115.402 74.7405 113.668 74.7405 111.527C74.7405 109.387 76.4755 107.652 78.6155 107.652ZM35.0588 109.348C35.1915 110.055 35.2639 110.783 35.2639 111.527C35.2639 112.272 35.1913 113 35.0588 113.707H66.9537C66.821 113 66.7483 112.272 66.7483 111.527C66.7483 110.783 66.821 110.055 66.9537 109.348H35.0588Z" fill="#D6D6D6"/>
</svg>
