<svg width="50" height="62" viewBox="0 0 50 62" fill="none" xmlns="http://www.w3.org/2000/svg">
<path d="M32.8124 1.5625L33.7504 4.93652V8.49834L39.5889 12.8772L46.4238 16.3782L47.4995 13.1517L38.8267 3.66748L36.9136 4.1458L32.8124 1.5625ZM31.5925 3.52832L26.4115 15.1855H29.1515L31.9926 8.08281V3.92852L31.5925 3.52812V3.52832ZM38.2194 5.61963L41.6257 9.11963L37.559 7.9832L38.2194 5.61963ZM33.0505 10.1707L30.6931 16.0643L35.646 28.4466L38.0649 13.9316L33.0506 10.1707H33.0505ZM8.75049 16.9434V30.8105H14.8052V21.4355H29.063V30.8105H34.6984L29.1516 16.9434H8.75049ZM6.99268 17.8223L2.50049 21.1914V32.6186L5.43018 33.5951V23.5127L6.99268 21.9502V17.8223ZM16.563 23.1934V24.5605H27.3052V23.1934H16.563ZM16.563 26.3184V27.6855H27.3052V26.3184H16.563ZM16.563 29.4434V30.8105H27.3052V29.4434H16.563ZM8.75049 32.5684V40.2354C9.72081 40.0937 10.7112 40.2563 11.5853 40.7009L15.1997 32.5684H8.75049ZM29.1662 32.5684L30.0455 40.4824C30.5749 40.2858 31.1351 40.1853 31.6998 40.1855C32.2076 40.1855 32.6972 40.2666 33.1573 40.4148L34.9012 32.5684H29.1662ZM9.43408 41.9434C7.75176 41.9434 6.40674 43.2884 6.40674 44.9707C6.40674 46.653 7.75176 47.998 9.43408 47.998C11.1165 47.998 12.4614 46.653 12.4614 44.9707C12.4614 43.2884 11.1165 41.9434 9.43408 41.9434ZM31.6997 41.9434C30.0174 41.9434 28.6724 43.2884 28.6724 44.9707C28.6724 46.653 30.0174 47.998 31.6997 47.998C33.3821 47.998 34.7271 46.653 34.7271 44.9707C34.7271 43.2884 33.3821 41.9434 31.6997 41.9434ZM9.43408 43.4082C10.2971 43.4082 10.9966 44.1077 10.9966 44.9707C10.9966 45.8337 10.2971 46.5332 9.43408 46.5332C8.57109 46.5332 7.87158 45.8337 7.87158 44.9707C7.87158 44.1077 8.57119 43.4082 9.43408 43.4082ZM31.6997 43.4082C32.5627 43.4082 33.2622 44.1077 33.2622 44.9707C33.2622 45.8337 32.5627 46.5332 31.6997 46.5332C30.8367 46.5332 30.1372 45.8337 30.1372 44.9707C30.1372 44.1077 30.8368 43.4082 31.6997 43.4082ZM14.1365 44.0918C14.19 44.377 14.2192 44.6705 14.2192 44.9707C14.2192 45.2709 14.1899 45.5645 14.1365 45.8496H26.9974C26.9438 45.5645 26.9145 45.2709 26.9145 44.9707C26.9145 44.6705 26.9438 44.377 26.9974 44.0918H14.1365Z" fill="#D6D6D6"/>
<path d="M1.35511 53.995V52.7273H7.32812V53.995H5.10156V60H3.58168V53.995H1.35511ZM8.31179 60V52.7273H11.1811C11.7304 52.7273 12.1991 52.8255 12.5874 53.022C12.978 53.2161 13.2751 53.492 13.4787 53.8494C13.6847 54.2045 13.7876 54.6224 13.7876 55.103C13.7876 55.5859 13.6835 56.0014 13.4751 56.3494C13.2668 56.6951 12.965 56.9602 12.5696 57.1449C12.1766 57.3295 11.7008 57.4219 11.142 57.4219H9.22088V56.1861H10.8935C11.187 56.1861 11.4309 56.1458 11.625 56.0653C11.8191 55.9848 11.9635 55.8641 12.0582 55.7031C12.1553 55.5421 12.2038 55.3421 12.2038 55.103C12.2038 54.8615 12.1553 54.6579 12.0582 54.4922C11.9635 54.3265 11.8179 54.201 11.6214 54.1158C11.4273 54.0282 11.1823 53.9844 10.8864 53.9844H9.84943V60H8.31179ZM12.2393 56.6903L14.0469 60H12.3494L10.581 56.6903H12.2393ZM21.5575 56.3636C21.5575 57.1567 21.4072 57.8314 21.1065 58.3878C20.8082 58.9441 20.401 59.3691 19.8849 59.6626C19.3712 59.9538 18.7936 60.0994 18.152 60.0994C17.5057 60.0994 16.9257 59.9527 16.4119 59.6591C15.8982 59.3655 15.4922 58.9406 15.1939 58.3842C14.8956 57.8279 14.7464 57.1544 14.7464 56.3636C14.7464 55.5705 14.8956 54.8958 15.1939 54.3395C15.4922 53.7831 15.8982 53.3594 16.4119 53.0682C16.9257 52.7746 17.5057 52.6278 18.152 52.6278C18.7936 52.6278 19.3712 52.7746 19.8849 53.0682C20.401 53.3594 20.8082 53.7831 21.1065 54.3395C21.4072 54.8958 21.5575 55.5705 21.5575 56.3636ZM19.9986 56.3636C19.9986 55.8499 19.9216 55.4167 19.7678 55.0639C19.6162 54.7112 19.402 54.4437 19.125 54.2614C18.848 54.0791 18.5237 53.9879 18.152 53.9879C17.7803 53.9879 17.456 54.0791 17.179 54.2614C16.902 54.4437 16.6866 54.7112 16.5327 55.0639C16.3812 55.4167 16.3054 55.8499 16.3054 56.3636C16.3054 56.8774 16.3812 57.3106 16.5327 57.6634C16.6866 58.0161 16.902 58.2836 17.179 58.4659C17.456 58.6482 17.7803 58.7393 18.152 58.7393C18.5237 58.7393 18.848 58.6482 19.125 58.4659C19.402 58.2836 19.6162 58.0161 19.7678 57.6634C19.9216 57.3106 19.9986 56.8774 19.9986 56.3636ZM25.6085 52.7273H27.1284V57.7983C27.1284 58.267 27.023 58.6742 26.8123 59.0199C26.604 59.3655 26.314 59.6319 25.9423 59.8189C25.5706 60.0059 25.1386 60.0994 24.6461 60.0994C24.2082 60.0994 23.8104 60.0225 23.4529 59.8686C23.0978 59.7124 22.8161 59.4756 22.6078 59.1584C22.3994 58.8388 22.2965 58.4375 22.2988 57.9545H23.8294C23.8341 58.1463 23.8732 58.3108 23.9466 58.4482C24.0223 58.5831 24.1253 58.6873 24.2555 58.7607C24.3881 58.8317 24.5443 58.8672 24.7243 58.8672C24.9136 58.8672 25.0734 58.8269 25.2037 58.7464C25.3362 58.6636 25.4368 58.5429 25.5055 58.3842C25.5742 58.2256 25.6085 58.0303 25.6085 57.7983V52.7273ZM29.6532 60H28.0055L30.5162 52.7273H32.4977L35.0048 60H33.3571L31.5353 54.3892H31.4785L29.6532 60ZM29.5502 57.1413H33.4423V58.3416H29.5502V57.1413ZM41.9632 52.7273V60H40.6351L37.4711 55.4226H37.4178V60H35.8801V52.7273H37.2296L40.3688 57.3011H40.4327V52.7273H41.9632Z" fill="#D6D6D6"/>
</svg>
